<svg xmlns="http://www.w3.org/2000/svg" viewBox="106 78 1264 1264" width="1264" height="1264">
  <path
    d="M1122.47 309.002C1123.92 308.948 1125.16 310.079 1125.32 311.532L1125.81 316.432H1125.75C1128.28 341.574 1125.81 365.801 1121.23 390.189C1116.38 414.416 1108.74 438.267 1098.35 461.04C1077.78 506.695 1046.56 548.043 1008.76 581.53C1004.08 585.783 999.341 589.928 994.388 593.858L987.012 599.781L979.797 605.219C970.106 612.433 960.685 619.917 950.671 626.754L935.758 637.145C930.751 640.59 925.581 643.82 920.467 647.158C910.345 653.996 899.793 660.133 889.241 666.324C846.925 691.09 801.593 710.741 757.607 727.808L692.194 753.273C670.605 761.78 649.177 770.394 627.804 779.277C617.09 783.638 606.591 788.429 595.878 792.897L587.91 796.29L580.804 799.628L573.696 802.966L566.752 806.734C548.232 816.748 530.68 828.915 514.26 842.967C481.311 870.963 453.315 906.227 429.249 944.56C405.453 983 385.103 1024.99 369.382 1068.28L367.659 1073.07C367.175 1074.42 365.774 1075.17 364.429 1074.9L356.515 1073.29C355.061 1073.02 354.092 1071.67 354.253 1070.16L354.791 1065.26C357.321 1040.93 362.437 1017.56 368.951 994.252C375.304 970.94 383.702 948.059 393.501 925.662C413.421 881.138 439.91 838.176 475.658 801.835C493.479 783.692 513.452 767.217 535.472 753.381L543.763 748.267L552.323 743.582L560.938 738.898L568.959 734.914C579.673 729.638 590.333 724.2 601.154 719.247C644.279 698.789 688.641 680.484 731.927 663.202C753.623 654.48 774.674 645.65 795.455 636.498C816.183 627.346 836.211 617.332 856.131 606.834C865.983 601.343 875.889 596.066 885.634 590.252C890.533 587.399 895.433 584.599 900.278 581.638L914.761 572.593C924.505 566.724 934.035 560.317 943.618 554.126L950.832 549.442L957.508 544.759L964.237 540.128L970.752 535.283C1005.59 509.226 1036.17 477.407 1060.23 440.366C1072.34 421.9 1082.68 402.034 1091.35 381.307C1095.71 370.916 1099.53 360.255 1102.76 349.38C1106.16 338.612 1108.9 327.253 1110.84 316.539L1111.75 311.371C1112.02 310.025 1113.15 309.056 1114.55 309.002H1122.47ZM1026.7 903.424C1027.78 902.616 1029.34 902.67 1030.37 903.639L1034.78 907.73C1035.86 908.699 1036.02 910.315 1035.16 911.499L1032.84 914.729H1032.9C1007.54 949.832 975.72 979.066 940.187 1003.94C904.654 1028.54 864.383 1048.25 821.259 1058.64C800.154 1063.91 778.887 1067.52 757.567 1070.21C736.248 1072.64 714.874 1074.2 693.608 1074.52C650.969 1075.01 608.598 1072.26 566.712 1063.43L562.782 1062.62C561.382 1062.35 560.413 1061.01 560.521 1059.61L561.005 1053.52C561.113 1052.12 562.243 1051.05 563.589 1050.89L567.681 1050.56C609.136 1047.06 650.43 1043.35 691.078 1038.29C711.429 1035.87 731.564 1032.69 751.592 1029.4C771.566 1025.74 791.378 1021.92 810.76 1016.97C848.823 1007.55 885.379 991.933 920.805 972.659C956.069 953.331 990.417 930.612 1023.37 905.954L1026.7 903.424ZM1112.37 592.452C1113.07 591.375 1114.36 590.837 1115.6 591.214L1121.15 592.883C1122.44 593.26 1123.3 594.552 1123.19 595.897L1122.76 600.366H1122.87C1120.55 623.247 1114.15 644.513 1105.86 665.402C1097.46 686.184 1086.85 706.212 1074.31 725.001C1061.66 743.737 1047.23 761.503 1030.91 777.493C1022.78 785.515 1014.22 793.106 1005.34 800.32C996.458 807.481 987.359 813.995 978.045 820.456C940.628 845.706 899.441 865.034 856.586 877.471C835.158 883.716 813.354 888.238 791.334 890.93C780.351 892.276 769.261 893.191 758.225 893.406C747.08 893.729 736.205 893.567 724.791 892.275L720.43 891.791C719.03 891.629 717.953 890.499 717.899 889.1L717.631 882.908C717.577 881.562 718.438 880.378 719.729 880.001L724.145 878.816C744.28 873.486 764.577 867.08 784.12 860.135C803.771 853.19 822.937 845.329 841.673 836.931C879.09 819.918 914.624 799.944 947.519 776.578C964.047 764.841 979.606 752.404 994.411 739.106C1001.79 732.377 1008.95 725.432 1016.05 718.379C1023 711.165 1030 703.897 1036.62 696.306C1063.43 666.157 1087.77 632.4 1109.84 596.544L1112.37 592.452Z"
    fill="#ffffff"
  />
</svg>
