<svg xmlns="http://www.w3.org/2000/svg" viewBox="0 0 100 100" width="100" height="100">
  <rect width="100" height="100" fill="#0f0f0f"/>
  <g fill="none" stroke="#8a8a8a" stroke-opacity="0.45" stroke-width="1.4" stroke-linecap="round">
    <path d="M 63.01 7.44 A 44.5 44.5 0 1 1 36.99 7.44"/>
    <path d="M 39.62 83.95 A 35.5 35.5 0 1 1 60.38 83.95"/>
    <path d="M 57.75 24.66 A 26.5 26.5 0 1 1 42.25 24.66"/>
    <path d="M 44.88 66.74 A 17.5 17.5 0 1 1 55.12 66.74"/>
    <path d="M 52.49 41.87 A 8.5 8.5 0 1 1 47.51 41.87"/>
  </g>
  <path
    d="M 50 5.5 L 50 10 A 40 40 0 0 1 50 90 L 50 81 A 31 31 0 0 0 50 19 L 50 28 A 22 22 0 0 1 50 72 L 50 63 A 13 13 0 0 0 50 37 L 50 46 L 50 50"
    fill="none"
    stroke="#d2beff"
    stroke-width="2.4"
    stroke-linecap="round"
    stroke-linejoin="round"
  />
  <circle cx="50" cy="50" r="3.4" fill="#d2beff"/>
</svg>
